<svg xmlns="http://www.w3.org/2000/svg" viewBox="0 0 2633 11264"><defs><style>.a{fill:#fff;}.b{fill:silver;}.c{fill:#8bd29b;}.d{fill:#7bcdef;}.e{fill:#febb8b;}.f{fill:#ee672a;}.g{fill:red;}.h{fill:#e52fec;}.i{fill:#841cf9;}.j{fill:#151515;}</style></defs><path class="a" d="M158,171H1767V878H158Z"/><path class="b" d="M1775.77,73.14c24.87,0,44.54,18.29,43.59,49.45V870.11a48.86,48.86,0,0,1-48.41,49.3H134.88a48.87,48.87,0,0,1-49.73-48c0-.46,0-.93,0-1.4V209c0-24.65,18.65-49.37,49.74-49.37H1160.34v-37c0-24.72,18.65-49.45,49.74-49.45h565.69ZM277.8,264.63H228.06c-18.57,0-37.3,18.58-37.3,37V789.72c0,18.58,18.73,37,37.3,37H526.49c18.65,0,37.3-18.43,37.3-37V740.35c0-18.65-18.65-37.15-37.3-37.15H315.1V301.64c0-18.43-18.65-37-37.3-37Zm447.64,0H675.7c-18.65,0-37.3,18.58-37.3,37V604.45c-.37,12.66,0,30.43,6.21,36.94l174.08,173c6.88,6.88,19.53,10,29.41,11.27l10,1h8l10-1c9.88-1.32,22.6-4.39,29.48-11.27l174.08-173c6.14-6.07,18.58-18.43,18.58-30.87V307.93c0-18.5-18.65-37.08-37.31-37.08h-49.59c-18.72,0-37.37,18.58-37.37,37.08V585.87l-105.69,105-105.62-105V301.64c0-18.43-18.65-37-37.3-37Zm944.71-86.53H1315.84a49,49,0,0,0-49.73,48.27c0,.39,0,.78,0,1.18V771.22c0,24.65,18.65,49.37,49.73,49.37h354.31c24.87,0,49.74-18.51,49.74-49.37V227.47A48.93,48.93,0,0,0,1671.47,178h-1.32ZM1564.46,295.5c16.6,0,33.2,14.63,36.71,30.86l.66,6.15V666.19c0,16.45-14.77,32.91-31.16,36.35l-6.21.66H1421.54c-16.61,0-33.14-14.63-36.58-30.87l-.73-6.14V332.58c0-16.46,14.7-32.91,31.09-36.35l6.22-.66h142.92Z"/><path class="a" d="M136,1194H1745v707H136Z"/><path class="b" d="M1769.57,1097.14c24.79,0,49.59,24.73,43.44,49.45V1894a48.86,48.86,0,0,1-48.34,49.38H134.6a48.79,48.79,0,0,1-49.51-48.05c0-.44,0-.88,0-1.33V1233c0-24.72,18.5-49.44,49.51-49.44H1156.41v-37c0-24.72,18.65-49.45,49.59-49.45h563.57ZM1497,1214.61H1373.2c-18.5,0-37.08,18.51-37.08,37v49.45c0,18.5,18.58,37.08,37.08,37.08h37.23v389.12h-49.59c-18.65,0-37.15,18.5-37.15,37.08v49.37c0,18.58,18.5,37.09,37.15,37.09h223.38c18.58,0,38.33-18.51,38.33-37.09v-49.15c0-18.58-19.75-37.52-38.33-37.52h-50V1251.62c0-18.5-18.66-37-37.23-37Zm-774.08,74H673.45c-18.58,0-37.16,18.58-37.16,37.08v308.45c.15,12.21,1,27.94,6.22,31.3l173.35,172.91c12.43,12.44,43.44,12.44,43.44,12.44h1c5.63-.22,31.3-1.47,42.27-12.44L1076,1665.46a59.87,59.87,0,0,1,4.9-4.39c6.21-5.34,13.6-11.7,13.6-20.26v-309c0-18.51-18.5-37-37.08-37h-49.52c-18.65,0-37.3,18.5-37.3,37V1609.8L865.52,1714.91l-105.33-105V1325.71c0-18.5-18.5-37.08-37.15-37.08Zm-445.87,0h-49.6c-18.5,0-37.08,18.58-37.08,37.08v488c0,18.51,18.58,37,37.08,37H524.82c18.51,0,37.16-18.5,37.16-37v-49.44c0-18.58-18.58-37.08-37.16-37.08H314.24V1325.64c0-18.43-18.58-37-37.15-37Z"/><path class="a" d="M136,2214H1745v707H136Z"/><path class="c" d="M1769.57,2121.14c24.79,0,49.59,24.73,43.44,49.45v747.52a48.78,48.78,0,0,1-48.26,49.3H134.6A48.71,48.71,0,0,1,85,2919.58c0-.51,0-1,0-1.55V2257c0-24.65,18.58-49.37,49.59-49.37H1156.41v-37c0-24.72,18.58-49.45,49.52-49.45h563.64ZM723,2312.63H673.45c-18.58,0-37.16,18.58-37.16,37v302.81c0,13.9,0,33.06,6.22,36.94l173.35,173c12.43,12.44,43.37,12.44,43.37,12.44s31,0,43.37-12.44l185.79-173c6.21-6.07,6.21-18.43,6.21-30.87V2355.93c0-18.5-18.57-37.08-37.15-37.08h-49.52c-18.65,0-37.16,18.58-37.16,37.08v277.94l-105.32,105-105.33-105V2349.64c0-18.43-18.5-37-37.08-37Zm-445.95,0H227.57c-18.58,0-37.16,18.58-37.16,37v488.08c0,18.58,18.58,37,37.16,37H524.82c18.58,0,37.16-18.43,37.16-37v-49.37c0-18.65-18.58-37.15-37.16-37.15H314.24V2349.64c0-18.43-18.58-37-37.15-37ZM1676.75,2220h-384c-18.58,0-37.09,18.5-37.09,37v49.44c0,18.51,18.51,37.09,37.09,37.09H1590v142H1292.75c-18.58,0-37.09,18.51-37.09,37.08v315.1c0,18.51,18.51,37,37.09,37h384c18.58,0,37.15-18.5,37.15-37v-49.44c0-18.58-18.57-37.16-37.15-37.16H1379.57v-142h297.18c18.58,0,37.15-18.58,37.15-37.08V2257C1713.9,2238.46,1695.33,2220,1676.75,2220Z"/><path class="a" d="M158,3237H1767v707H158Z"/><path class="d" d="M1769.62,3145.14c24.8,0,49.52,24.73,43.38,49.45V3942a48.87,48.87,0,0,1-48.34,49.38h-1630a48.8,48.8,0,0,1-49.52-48V3281c0-24.72,18.58-49.44,49.52-49.44H1156.47v-37c0-24.72,18.65-49.45,49.59-49.45ZM723,3336.63H673.43c-18.58,0-37.16,18.58-37.16,37.08v302.67c0,13.17,0,33,6.22,37.08l173.35,172.91c11,11,36.72,12.22,42.35,12.44h1s31,0,43.38-12.44l185.78-172.91c6.22-6.21,6.22-18.5,6.22-30.86V3379.86c0-18.51-18.58-37-37.16-37h-49.52c-18.65,0-37.23,18.5-37.23,37V3657.8l-105.32,105-105.11-105V3373.71c0-18.5-18.65-37.08-37.16-37.08Zm-445.88,0H227.48c-18.58,0-37.16,18.58-37.16,37.08v488c0,18.51,18.58,37,37.16,37H524.8c18.58,0,37.16-18.5,37.16-37v-49.44c0-18.58-18.58-37.08-37.16-37.08H314.15V3373.64c0-18.43-18.5-37-37.08-37ZM1676.73,3244h-384c-18.58,0-37.08,18.5-37.08,37v49.44c0,18.51,18.5,37.09,37.08,37.09H1590v142H1292.73c-18.58,0-37.08,18.51-37.08,37.08v49.45c0,18.5,18.5,37,37.08,37H1590V3775.2H1292.73c-18.58,0-37.08,18.43-37.08,37v49.44c0,18.51,18.5,37.08,37.08,37.08h384c18.58,0,37.16-18.57,37.16-37.08V3281C1713.89,3262.46,1695.31,3244,1676.73,3244Z"/><path class="a" d="M167,4258H1776v707H167Z"/><path class="e" d="M1769.62,4169.14c24.8,0,49.52,24.73,43.38,49.45V4966a48.87,48.87,0,0,1-48.34,49.38h-1630a48.8,48.8,0,0,1-49.52-48.05V4305c0-24.72,18.58-49.44,49.52-49.44H1156.47v-37c0-24.72,18.65-49.45,49.59-49.45ZM723,4360.63H673.43c-18.58,0-37.16,18.58-37.16,37.08V4707c.15,13.24.88,26.77,6.22,30.5l173.35,172.91c12.43,12.44,43.37,12.44,43.37,12.44h1.1c5.56-.22,31.23-1.47,42.28-12.44l185.78-172.91c6.22-6.21,6.22-18.5,6.22-30.86V4403.86c0-18.51-18.58-37-37.16-37h-49.52c-18.65,0-37.23,18.5-37.23,37V4681.8l-105.32,105-105.11-105V4397.71c0-18.5-18.65-37.08-37.16-37.08Zm-445.88,0H227.48c-18.58,0-37.16,18.58-37.16,37.08v488c0,18.51,18.58,37,37.16,37H524.8c18.58,0,37.16-18.5,37.16-37v-49.44c0-18.58-18.58-37.08-37.16-37.08H314.15V4397.64c0-18.43-18.5-37-37.08-37ZM1342.25,4268h-49.52c-18.58,0-37.08,18.5-37.08,37v315c0,18.57,18.5,37.08,37.08,37.08H1590v228.57c0,18.51,18.58,37.08,37.23,37.08h49.52c18.58,0,37.16-18.57,37.16-37.08V4305c0-18.51-18.58-37-37.16-37h-49.52c-18.65,0-37.23,18.5-37.23,37v228.57h-210.5V4305C1379.48,4286.46,1360.83,4268,1342.25,4268Z"/><path class="a" d="M145,5287H1754v707H145Z"/><path class="f" d="M1769.57,5193.14c24.79,0,49.59,24.73,43.44,49.45V5990a48.86,48.86,0,0,1-48.34,49.38H134.6a48.79,48.79,0,0,1-49.58-48c0-.46,0-.93,0-1.4V5329c0-24.72,18.58-49.44,49.59-49.44H1156.41v-37c0-24.72,18.58-49.45,49.52-49.45h563.64ZM723,5384.63H673.45c-18.58,0-37.16,18.58-37.16,37.08v302.67c0,12.51,0,31.23,6.22,37.08l173.35,172.91c11,11,36.79,12.22,42.35,12.44h1s31,0,43.37-12.44l185.79-172.91c6.21-6.21,6.21-18.5,6.21-30.86V5427.86c0-18.51-18.57-37-37.15-37h-49.52c-18.65,0-37.16,18.5-37.16,37V5705.8l-105.32,105-105.33-105V5421.71c0-18.5-18.5-37.08-37.08-37.08Zm-445.95,0H227.57c-18.58,0-37.16,18.58-37.16,37.08v488c0,18.51,18.58,37,37.16,37H524.82c18.58,0,37.16-18.5,37.16-37v-49.44c0-18.58-18.58-37.08-37.16-37.08H314.24V5421.64c0-18.43-18.58-37-37.15-37ZM1676.75,5292h-384c-18.58,0-37.09,18.5-37.09,37v315c0,18.57,18.51,37.08,37.09,37.08H1590V5823.2H1292.75c-18.58,0-37.09,18.43-37.09,37v49.44c0,18.51,18.51,37.08,37.09,37.08h384c18.58,0,37.15-18.57,37.15-37.08v-315c0-18.5-18.57-37.08-37.15-37.08H1379.57v-135.9h297.18c18.58,0,37.15-18.5,37.15-37.08V5329C1713.9,5310.46,1695.33,5292,1676.75,5292Z"/><path class="a" d="M145,6309H1754v707H145Z"/><path class="g" d="M1769.57,6217c22.67,0,45.42,20.77,44.32,43.3l-.88,6.14v747.45c0,22.45-15.36,44.91-41.47,48.86l-8.12.58H134.6a48.85,48.85,0,0,1-49-41.32l-.59-8.12v-661c0-22.46,15.36-44.91,41.4-48.79l8.19-.58H1156.41v-37.09c0-22.45,15.36-44.91,41.4-48.78l8.12-.66h563.64Zm-92.9,105H1292.75c-16.46,0-32.92,14.63-36.43,30.94l-.66,6.14v574.47c0,16.46,14.63,32.91,30.94,36.42l6.15.66h384c16.53,0,33-14.63,36.5-30.94l.65-6.14v-315c0-16.53-14.62-32.91-31-36.42l-6.14-.66H1379.57v-135.9h297.18c16.53,0,33-14.63,36.5-30.94l.65-6.14v-49.38c0-18.57-18.57-37.08-37.15-37.08ZM723.11,6408.6H673.52c-18.58,0-37.16,18.5-37.16,37v302.74c0,16.75,0,31.81,6.22,37l173.35,172.91c7.9,7.9,23.26,10.75,33.43,11.85l9.94.58,8.56-.44c10.09-.95,26.55-3.65,34.82-12l185.78-172.91c5-4.9,6-13.83,6.14-23.48v-310.2c0-18.51-18.5-37-37.08-37H1008c-18.65,0-37.15,18.5-37.15,37.08V6729.7l-105.33,105-105.33-105V6445.61c0-18.51-18.5-37-37.08-37Zm-445.95,0H227.64c-16.53,0-33.06,14.63-36.57,30.87l-.59,6.14v488c0,16.53,14.63,32.91,30.94,36.42l6.22.66H524.89c16.53,0,33-14.63,36.5-30.94l.66-6.14v-49.37c0-16.61-14.63-33-31-36.43l-6.15-.66H314.24V6445.61c0-18.51-18.58-37-37.15-37Zm1312.91,296.45v142.11h-210.5V6705.05Z"/><path class="a" d="M145,7333H1754v707H145Z"/><path class="h" d="M1769.57,7241c22.67,0,45.42,20.77,44.32,43.3l-.88,6.14v747.45c0,22.45-15.36,44.91-41.47,48.86l-8.12.58H134.6a48.85,48.85,0,0,1-49-41.32l-.59-8.12v-661c0-22.46,15.36-44.91,41.4-48.79l8.19-.58H1156.41v-37.09c0-22.45,15.36-44.91,41.4-48.78l8.12-.66h563.64ZM723.11,7432.6H673.52c-18.58,0-37.16,18.5-37.16,37v302.74c0,16.75,0,31.81,6.22,37l173.35,172.91c7.9,7.9,23.26,10.75,33.43,11.85l9.94.58,8.56-.44c10.09-.95,26.55-3.65,34.82-12l185.78-172.91c5-4.9,6-13.83,6.14-23.48v-310.2c0-18.51-18.5-37-37.08-37H1008c-18.65,0-37.15,18.5-37.15,37.08V7753.7l-105.33,105-105.33-105V7469.61c0-18.51-18.5-37-37.08-37Zm-445.95,0H227.64c-16.53,0-33.06,14.63-36.57,30.87l-.59,6.14v488c0,16.53,14.63,32.91,30.94,36.42l6.22.66H524.89c16.53,0,33-14.63,36.5-30.94l.66-6.14v-49.37c0-16.61-14.63-33-31-36.43l-6.15-.66H314.24V7469.61c0-18.51-18.58-37-37.15-37Zm1426.74-51.17c0-18.51-18.57-37-37.15-37h-384c-18.58,0-37.09,18.5-37.09,37v49.44c0,18.51,18.51,37.09,37.09,37.09H1580v489.15c0,18.5,18.58,37.08,37.23,37.08h49.52c18.58,0,37.15-18.58,37.15-37.08Z"/><path class="a" d="M145,8357H1754v707H145Z"/><path class="i" d="M1769.57,8265c22.67,0,45.42,20.77,44.32,43.3l-.88,6.14v747.45c0,22.45-15.36,44.91-41.47,48.86l-8.12.58H134.6a48.85,48.85,0,0,1-49-41.32l-.59-8.12v-661c0-22.46,15.36-44.91,41.4-48.79l8.19-.58H1156.41v-37.09c0-22.45,15.36-44.91,41.4-48.78l8.12-.66h563.64ZM723.11,8456.6H673.52c-18.58,0-37.16,18.5-37.16,37v302.74c0,16.75,0,31.81,6.22,37l173.35,172.91c7.9,7.9,23.26,10.75,33.43,11.85l9.94.58,8.56-.44c10.09-1,26.55-3.65,34.82-12l185.78-172.91c5-4.9,6-13.83,6.14-23.48v-310.2c0-18.51-18.5-37-37.08-37H1008c-18.65,0-37.15,18.5-37.15,37.08v278l-105.33,105-105.33-105V8493.61c0-18.51-18.5-37-37.08-37Zm-445.95,0H227.64c-16.53,0-33.06,14.63-36.57,30.87l-.59,6.14v488c0,16.53,14.63,32.91,30.94,36.42l6.22.66H524.89c16.53,0,33-14.63,36.5-30.94l.66-6.14v-49.37c0-16.61-14.63-33-31-36.43l-6.15-.66H314.24V8493.61c0-18.51-18.58-37-37.15-37ZM1713.25,8401c-3.52-16.31-20-30.94-36.43-30.94H1292.75c-16.46,0-32.92,14.63-36.43,30.94l-.66,6.14v574.47c0,16.46,14.63,32.91,30.94,36.42l6.15.66h384c16.53,0,33-14.63,36.5-30.94l.65-6.14V8407.15Zm-123.18,352v142.11h-210.5V8753.05Zm-.07-259.44v135.9H1379.57v-135.9Z"/><path class="a" d="M145,9381H1754v707H145Z"/><path class="j" d="M1769.57,9289c22.67,0,45.42,20.77,44.32,43.3l-.88,6.14v747.45c0,22.45-15.36,44.91-41.47,48.86l-8.12.58H134.6a48.85,48.85,0,0,1-49-41.32l-.59-8.12v-661c0-22.46,15.36-44.91,41.4-48.79l8.19-.58H1156.41v-37.09c0-22.45,15.36-44.91,41.4-48.78l8.12-.66h563.64Zm-476.68,753.66h383.93c16.46,0,32.91-14.63,36.43-30.94l.65-6.14V9431.15c0-16.45-14.62-32.91-30.94-36.42l-6.14-.66h-384c-16.53,0-33,14.63-36.5,30.94l-.66,6.14v315c0,16.53,14.63,32.91,31,36.43l6.14.65H1590v135.9H1292.82c-16.53,0-33,14.63-36.5,30.94l-.66,6.15v49.37c0,18.58,18.58,37.08,37.16,37.08ZM723.11,9480.6H673.52c-18.58,0-37.16,18.5-37.16,37v302.74c0,16.75,0,31.81,6.22,37l173.35,172.91c7.9,7.9,23.26,10.75,33.43,11.85l9.94.58,8.56-.44c10.09-1,26.55-3.65,34.82-12l185.78-172.91c5-4.9,6-13.83,6.14-23.48v-310.2c0-18.51-18.5-37-37.08-37H1008c-18.65,0-37.15,18.5-37.15,37.08v278l-105.33,105-105.33-105V9517.61c0-18.51-18.5-37-37.08-37Zm-445.95,0H227.64c-16.53,0-33.06,14.63-36.57,30.87l-.59,6.14v488c0,16.53,14.63,32.91,30.94,36.42l6.22.66H524.89c16.53,0,33-14.63,36.5-30.94l.66-6.14v-49.37c0-16.61-14.63-33-31-36.43l-6.15-.66H314.24V9517.61c0-18.51-18.58-37-37.15-37Zm1102.33,179.13V9517.61H1590v142.12Z"/><path class="a" d="M159.55,10403.18H2408.47v707.37H159.55Z"/><path class="g" d="M2501,10313.14c22.75,0,45.5,20.78,44.4,43.3l-.95,6.15V11110c0,22.39-15.36,44.91-41.47,48.79l-8.12.59H134.68a48.88,48.88,0,0,1-49-41.26l-.51-8.12v-661c0-22.45,15.36-45,41.4-48.86l8.12-.58h1021.8v-37c0-22.46,15.36-45,41.47-48.86l8-.59H2501Zm-340.11,101.38-272.31,370.61a27.86,27.86,0,0,0,22.53,44.4h176.71l-30.43,210.95c-4.17,28.74,32.92,44,50.18,20.48l272.24-370.55a27.95,27.95,0,0,0-22.53-44.47H2180.56l30.42-210.87c4.17-28.82-32.91-44-50.1-20.55Zm-484.06,3.58h-384c-18.5,0-37,18.58-37,37.09v574.46c0,18.58,18.51,37.08,37.08,37.08h384c18.51,0,37.09-18.5,37.09-37.08v-315c0-18.5-18.58-37-37.16-37H1379.64v-135.9h297.18c18.58,0,37.16-18.57,37.16-37.08v-49.44c0-18.51-18.58-37.09-37.16-37.09ZM723,10504.63H673.52c-18.58,0-37.16,18.51-37.16,37.08v302.67c0,16.82,0,31.82,6.22,37.08l173.35,172.91c12.43,12.36,43.37,12.36,43.37,12.36s30.94,0,43.38-12.36l185.78-172.91c6.14-6.21,6.14-18.58,6.14-30.86v-302.74c0-18.51-18.57-37-37.15-37H1008c-18.65,0-37.23,18.5-37.23,37v278l-105.32,105-105.26-105v-284.16C760.19,10523.14,741.62,10504.63,723,10504.63Zm-445.88,0H227.57c-16.53,0-33,14.63-36.5,30.94l-.66,6.14v488c0,16.46,14.63,32.92,31,36.36l6.15.65H524.82c16.53,0,33.06-14.62,36.57-30.86l.59-6.15v-49.44c0-16.53-14.63-32.92-30.94-36.43l-6.22-.65H314.32v-401.49C314.32,10523.14,295.74,10504.63,277.16,10504.63Zm1312.91,296.52v142.05h-210.5v-142.05h210.5Z"/></svg>